<svg xmlns="http://www.w3.org/2000/svg" width="301" height="178" viewBox="0 0 301 178">
    <g fill="none" fill-rule="evenodd">
        <path fill="#F0F0F0" d="M0 0h301v177.545H0z"/>
        <g fill="#B4B4B4">
            <path fill-rule="nonzero" d="M176.197 59.188l-10.313-.5-.6-6.725c-.125-1.413-1.388-2.4-2.863-2.288l-36.988 3.038c-1.475.125-2.537 1.312-2.425 2.713l2.65 29.475c.125 1.413 1.4 2.4 2.863 2.288l1.875-.15-.3 5.725c-.075 1.575 1.15 2.85 2.8 2.937l41.263 1.963c1.65.075 3.013-1.075 3.1-2.65l1.738-32.913c.075-1.563-1.163-2.838-2.8-2.913zm-44.364.663l-.887 16.85-2.188 3.087-2.012-22.25v-.125c.125-.625.55-1.125 1.2-1.175l32.625-2.675c.65-.05 1.213.375 1.313.987 0 .025.037.025.037.05 0 .013.038.025.038.05l.337 3.85-27.375-1.312c-1.65-.05-3.013 1.1-3.088 2.663zm41.751 29.613l-10.6-12.438-4.675 4.288-8.65-10.1L134.32 87.55l1.3-24.888v-.05c.125-.675.775-1.162 1.487-1.125l36.401 1.75c.725.038 1.288.588 1.3 1.275 0 .025.038.038.038.063l-1.263 24.888zm-6.587-15.8c2.2 0 4-1.8 4-4s-1.788-4-4-4c-2.2 0-4 1.787-4 4 0 2.212 1.787 4 4 4z"/>
            <text font-family="OpenSans-Semibold, Open Sans" font-size="24" font-weight="500" transform="translate(55 45)">
                <tspan x="0" y="81">Image not found</tspan>
            </text>
        </g>
    </g>
</svg>
